<svg width="412" height="123" viewBox="0 0 412 123" fill="none" xmlns="http://www.w3.org/2000/svg">
<path fill-rule="evenodd" clip-rule="evenodd" d="M61 0H17C7.61108 0 0 7.61115 0 17V106C0 115.389 7.61108 123 17 123H61V0ZM83 123V0H395C404.389 0 412 7.61115 412 17V106C412 115.389 404.389 123 395 123H83ZM221 61C221 69.2843 214.284 76 206 76C197.716 76 191 69.2843 191 61C191 52.7157 197.716 46 206 46C214.284 46 221 52.7157 221 61ZM268 76C276.284 76 283 69.2843 283 61C283 52.7157 276.284 46 268 46C259.716 46 253 52.7157 253 61C253 69.2843 259.716 76 268 76ZM345 61C345 69.2843 338.284 76 330 76C321.716 76 315 69.2843 315 61C315 52.7157 321.716 46 330 46C338.284 46 345 52.7157 345 61Z" fill="black"/>
</svg>
