<svg width="433" height="346" viewBox="0 0 433 346" fill="none" xmlns="http://www.w3.org/2000/svg">
<path fill-rule="evenodd" clip-rule="evenodd" d="M368 16.5C368 25.6127 360.613 33 351.5 33C342.387 33 335 25.6127 335 16.5C335 7.3873 342.387 0 351.5 0C360.613 0 368 7.3873 368 16.5ZM415.585 5.14134C410.903 0.450714 403.305 0.443649 398.614 5.1256L278.714 124.804C264.925 116.343 245.247 107.065 227.5 109C212.257 110.662 202.86 116.011 197.911 119.847C194.892 122.187 194.148 126.164 194.681 129.946C196.211 140.793 196.629 164.39 176.5 183C156.688 201.317 130.746 195.477 118.292 191.046C113.764 189.435 108.582 189.975 105.213 193.404C98.7829 199.946 89.2051 211.52 88.5001 223C86.1955 260.53 89.9603 271.182 92.8011 274.08C94.1878 275.495 96.0941 274.182 97.3706 272.667C105.236 263.332 136.807 230.568 171 260C205.152 289.396 171.278 327.763 161.479 337.614C159.879 339.222 159.387 341.297 161.498 342.128C165.989 343.897 178.467 345.85 213 344C225.054 343.354 235.72 333.857 241.625 327.41C244.782 323.963 245.003 318.91 243.297 314.559C238.702 302.844 232.627 278.426 250.5 258C267.565 238.497 289.482 238.158 301.212 239.748C306.255 240.432 311.572 238.781 314.019 234.319C317.721 227.567 322.642 216.359 324.5 202C326.742 184.679 317.993 166.809 309.699 154.267L428.809 35.3768C433.5 30.6949 433.507 23.0969 428.825 18.4063L415.585 5.14134ZM233.093 6.48018C226.932 0.307861 216.934 0.298584 210.761 6.45947L5.28525 211.555C-0.887109 217.716 -0.896386 227.714 5.2645 233.886C11.4254 240.058 21.4234 240.068 27.5958 233.907L233.072 28.8114C239.244 22.6505 239.254 12.6525 233.093 6.48018ZM152.538 273.698C148.467 269.535 141.996 268.894 137.188 272.179L93.9359 301.728C87.7328 305.966 86.9048 314.797 92.212 320.114L113.607 341.548C118.886 346.837 127.662 346.067 131.94 339.94L161.81 297.151C165.111 292.423 164.582 286.015 160.551 281.893L152.538 273.698ZM318.5 67C327.613 67 335 59.6127 335 50.5C335 41.3873 327.613 34 318.5 34C309.387 34 302 41.3873 302 50.5C302 59.6127 309.387 67 318.5 67ZM400 114.5C400 123.613 392.613 131 383.5 131C374.387 131 367 123.613 367 114.5C367 105.387 374.387 98 383.5 98C392.613 98 400 105.387 400 114.5ZM415.5 99C424.613 99 432 91.6127 432 82.5C432 73.3873 424.613 66 415.5 66C406.387 66 399 73.3873 399 82.5C399 91.6127 406.387 99 415.5 99Z" fill="black"/>
</svg>
