<svg width="470" height="313" viewBox="0 0 470 313" fill="none" xmlns="http://www.w3.org/2000/svg">
<path fill-rule="evenodd" clip-rule="evenodd" d="M24 0C10.7452 0 0 10.7452 0 24V289C0 302.255 10.7452 313 24 313H446C459.255 313 470 302.255 470 289V24C470 10.7452 459.255 0 446 0H24ZM105 130H51V262H117V208.858C110.215 207.888 105 202.053 105 195V130ZM156 130V195C156 202.396 150.265 208.452 143 208.965V262H222V208.858C215.215 207.888 210 202.053 210 195V130H156ZM261 130V195C261 202.396 255.265 208.452 248 208.965V262H326V208.858C319.215 207.888 314 202.053 314 195V130H261ZM365 130V195C365 202.396 359.265 208.452 352 208.965V262H418V130H365Z" fill="black"/>
</svg>
