<svg width="419" height="362" viewBox="0 0 419 362" fill="none" xmlns="http://www.w3.org/2000/svg">
<path fill-rule="evenodd" clip-rule="evenodd" d="M232.983 5.17604C226.823 -0.996287 216.825 -1.00555 210.652 5.15533L5.17594 210.251C-0.996388 216.412 -1.00567 226.41 5.15521 232.582C11.3161 238.754 21.3141 238.763 27.4865 232.603L232.963 27.5073C239.135 21.3464 239.144 11.3484 232.983 5.17604ZM337.321 53.9618C346.432 54.1343 353.957 46.8881 354.13 37.777C354.302 28.666 347.056 21.1402 337.945 20.9677C328.834 20.7953 321.308 28.0414 321.136 37.1525C320.963 46.2636 328.209 53.7893 337.321 53.9618ZM401.921 27.321C397.329 22.5425 389.732 22.3917 384.954 26.984L287.759 120.394C273.169 111.328 252.099 101.383 232.533 103.748C215.068 105.859 204.337 112.262 198.929 116.53C195.992 118.847 195.13 122.692 195.503 126.415C196.656 137.917 196.198 164.18 172.797 185.106C149.823 205.65 121.327 199.149 108.232 194.468C103.758 192.869 98.6402 193.371 95.2138 196.662C87.866 203.719 76.0058 216.94 74.5532 229.917C69.8029 272.355 73.762 283.22 76.7543 285.842C78.1387 287.055 79.9078 285.755 81.1433 284.391C89.0928 275.613 122.049 243.855 157.934 275.629C193.633 307.24 157.864 344.706 147.615 354.197C145.958 355.732 145.359 357.813 147.449 358.669C152.063 360.559 165.405 362.613 203.764 360.083C217.417 359.182 229.971 347.967 236.614 340.872C239.791 337.478 240.174 332.477 238.63 328.092C234.232 315.601 228.512 288.65 249.427 265.831C269.623 243.796 294.276 243.646 306.72 245.362C311.616 246.036 316.777 244.495 319.364 240.284C323.821 233.03 330.304 220.283 333.273 203.774C336.834 183.971 327.273 163.677 318.565 150.069L414.571 57.8013C419.35 53.209 419.5 45.6125 414.908 40.8341L401.921 27.321ZM103.073 352.78C98.296 356.109 91.8189 355.529 87.7099 351.404L79.6211 343.284C75.5517 339.199 74.9632 332.797 78.2198 328.038L107.691 284.973C111.911 278.806 120.68 277.955 126.008 283.194L147.601 304.429C152.958 309.696 152.212 318.535 146.048 322.83L103.073 352.78ZM320.492 71.1464C320.32 80.2575 312.794 87.5036 303.683 87.3312C294.572 87.1587 287.326 79.6329 287.498 70.5219C287.671 61.4108 295.196 54.1646 304.308 54.3371C313.419 54.5096 320.665 62.0353 320.492 71.1464ZM367.46 152.55C376.571 152.722 384.097 145.476 384.269 136.365C384.442 127.254 377.196 119.728 368.085 119.556C358.974 119.383 351.448 126.629 351.275 135.741C351.103 144.852 358.349 152.377 367.46 152.55ZM416.869 104.976C416.697 114.087 409.171 121.334 400.06 121.161C390.949 120.989 383.703 113.463 383.875 104.352C384.048 95.2408 391.574 87.9946 400.685 88.1671C409.796 88.3396 417.042 95.8653 416.869 104.976Z" fill="black"/>
</svg>
